<?xml version="1.0" encoding="utf-8"?>
<!-- Generator: Adobe Illustrator 27.2.0, SVG Export Plug-In . SVG Version: 6.00 Build 0)  -->
<svg version="1.1" id="Шар_1" xmlns="http://www.w3.org/2000/svg" xmlns:xlink="http://www.w3.org/1999/xlink" x="0px" y="0px"
	 viewBox="0 0 11 11" style="enable-background:new 0 0 11 11;" xml:space="preserve">
<style type="text/css">
	.st0{fill:#808080;}
	.st1{display:none;}
	.st2{display:inline;fill:#FFFFFF;}
	.st3{fill:#FFFFFF;}
</style>
<g>
	<path class="st0" d="M9.64,11H1.36C0.61,11,0,10.39,0,9.64V1.36C0,0.61,0.61,0,1.36,0h8.28C10.39,0,11,0.61,11,1.36v8.28
		C11.01,10.39,10.4,11,9.64,11z"/>
	<g class="st1">
		<path class="st2" d="M7.39,9.15V8.18H3.48V3.25H4.1v4.38h2.64V3.25h0.62v4.38h0.62v1.53L7.39,9.15L7.39,9.15z"/>
	</g>
	<g>
		<path class="st3" d="M3.11,5.42c0-0.34,0.06-0.67,0.18-1c0.12-0.33,0.3-0.62,0.53-0.89c0.23-0.27,0.52-0.48,0.85-0.64
			C5,2.73,5.38,2.65,5.81,2.65c0.5,0,0.94,0.11,1.3,0.34S7.75,3.5,7.93,3.86L7.24,4.32C7.13,4.09,7,3.92,6.84,3.79
			C6.68,3.66,6.51,3.56,6.32,3.51C6.14,3.46,5.96,3.43,5.78,3.43c-0.29,0-0.55,0.06-0.77,0.18c-0.22,0.12-0.4,0.27-0.55,0.47
			C4.31,4.27,4.2,4.49,4.12,4.73C4.05,4.97,4.01,5.21,4.01,5.45c0,0.27,0.04,0.52,0.13,0.77s0.21,0.47,0.37,0.66
			s0.35,0.34,0.57,0.45C5.3,7.44,5.54,7.5,5.8,7.5c0.18,0,0.36-0.03,0.56-0.09c0.19-0.07,0.37-0.17,0.54-0.3
			C7.06,6.97,7.19,6.8,7.29,6.58L8.02,7C7.9,7.27,7.72,7.51,7.48,7.7C7.23,7.89,6.96,8.04,6.66,8.14s-0.6,0.15-0.89,0.15
			c-0.39,0-0.75-0.08-1.07-0.25C4.38,7.88,4.1,7.66,3.86,7.38C3.62,7.11,3.44,6.8,3.31,6.46C3.18,6.11,3.11,5.77,3.11,5.42z"/>
	</g>
</g>
</svg>
