<?xml version="1.0" encoding="utf-8"?>
<!-- Generator: Adobe Illustrator 27.2.0, SVG Export Plug-In . SVG Version: 6.00 Build 0)  -->
<svg version="1.1" id="Layer_1" xmlns="http://www.w3.org/2000/svg" xmlns:xlink="http://www.w3.org/1999/xlink" x="0px" y="0px"
	 viewBox="0 0 22.15 22.15" style="enable-background:new 0 0 22.15 22.15;" xml:space="preserve">
<style type="text/css">
	.st0{fill:#8173FF;}
	.st1{fill:#8681F9;}
	.st2{fill:#8A8FF2;}
	.st3{fill:#8F9DEC;}
	.st4{fill:#93ABE6;}
	.st5{fill:#98B8DF;}
	.st6{fill:#9CC6D9;}
	.st7{fill:#A1D4D2;}
	.st8{fill:#A5E2CC;}
	.st9{fill:#BF9DF2;}
	.st10{fill:#FFFFFF;}
</style>
<g>
	<path class="st9" d="M19.98,22.15H2.17C0.98,22.15,0,21.17,0,19.98L0,2.17C0,0.98,0.98,0,2.17,0l17.81,0
		c1.19,0,2.17,0.98,2.17,2.17v17.81C22.15,21.17,21.17,22.15,19.98,22.15z"/>
	<g>
		<path class="st10" d="M6.27,10.68c0-0.68,0.12-1.36,0.36-2.01c0.24-0.66,0.6-1.26,1.07-1.8C8.17,6.33,8.74,5.9,9.41,5.58
			c0.67-0.32,1.44-0.48,2.29-0.48c1.01,0,1.88,0.23,2.62,0.69s1.28,1.04,1.64,1.76l-1.39,0.93c-0.21-0.45-0.48-0.81-0.8-1.07
			c-0.32-0.26-0.67-0.45-1.04-0.55c-0.37-0.1-0.74-0.16-1.1-0.16c-0.59,0-1.1,0.12-1.55,0.35C9.65,7.28,9.28,7.59,8.98,7.98
			C8.68,8.37,8.45,8.81,8.3,9.29c-0.15,0.48-0.23,0.97-0.23,1.45c0,0.54,0.09,1.06,0.27,1.56c0.18,0.5,0.43,0.94,0.75,1.33
			c0.32,0.38,0.7,0.69,1.14,0.91c0.44,0.22,0.93,0.33,1.45,0.33c0.36,0,0.73-0.06,1.12-0.19c0.39-0.13,0.75-0.32,1.08-0.59
			s0.59-0.62,0.78-1.07l1.47,0.84c-0.23,0.56-0.59,1.03-1.08,1.42c-0.49,0.39-1.04,0.68-1.64,0.88c-0.61,0.2-1.2,0.3-1.79,0.3
			c-0.79,0-1.51-0.17-2.16-0.5c-0.65-0.33-1.22-0.77-1.69-1.33c-0.47-0.55-0.84-1.17-1.11-1.86S6.27,11.39,6.27,10.68z"/>
	</g>
</g>
</svg>
